<?xml version="1.0" encoding="UTF-8" standalone="no"?><!DOCTYPE svg PUBLIC "-//W3C//DTD SVG 1.1//EN" "http://www.w3.org/Graphics/SVG/1.1/DTD/svg11.dtd"><svg width="100%" height="100%" viewBox="0 0 769 252" version="1.1" xmlns="http://www.w3.org/2000/svg" xmlns:xlink="http://www.w3.org/1999/xlink" xml:space="preserve" xmlns:serif="http://www.serif.com/" style="fill-rule:evenodd;clip-rule:evenodd;stroke-linejoin:round;stroke-miterlimit:1.41421;"><circle cx="125.76" cy="125.76" r="125.76" style="fill:#fbd43e;"/><circle cx="125.76" cy="125.76" r="119.88" style="fill:#fefffe;"/><circle cx="125.76" cy="125.76" r="114.901" style="fill:#fbd43e;"/><path d="M76.723,142.872l6.624,0c2.454,14.23 8.096,25.638 16.928,34.224c8.833,8.587 19.075,12.881 30.729,12.881c8.955,0 16.315,-2.668 22.08,-8.004c5.766,-5.337 8.648,-11.807 8.648,-19.413c0,-6.01 -2.085,-11.071 -6.256,-15.18c-4.171,-4.109 -10.059,-7.023 -17.664,-8.74c-15.334,-3.435 -26.19,-6.317 -32.568,-8.648c-9.446,-3.435 -16.07,-7.483 -19.873,-12.144c-4.416,-5.398 -6.624,-12.819 -6.624,-22.265c0,-11.653 3.803,-21.344 11.408,-29.072c7.606,-7.728 17.235,-11.592 28.889,-11.592c6.378,0 12.113,1.104 17.204,3.312c5.091,2.208 10.212,5.52 15.364,9.936l8.464,-11.96l6.624,0l0.552,49.865l-6.072,0c-7.237,-29.318 -21.344,-43.977 -42.32,-43.977c-8.219,0 -14.935,2.423 -20.149,7.268c-5.213,4.845 -7.82,10.703 -7.82,17.572c0,6.992 2.392,12.512 7.176,16.56c3.68,3.19 13.095,6.502 28.245,9.937c15.149,3.434 25.913,7.114 32.292,11.04c10.795,6.624 16.192,16.437 16.192,29.44c0,12.267 -4.109,22.448 -12.328,30.545c-8.218,8.096 -18.952,12.144 -32.2,12.144c-13.862,0 -26.067,-4.539 -36.617,-13.616l-10.304,12.696l-6.624,0l0,-52.809Z" style="fill:#fefffe;fill-rule:nonzero;"/><g><path d="M302.595,67.157c-0.7,-3.3 -1.888,-5.675 -3.563,-7.125c-1.675,-1.45 -3.962,-2.175 -6.862,-2.175c-2.1,0 -3.95,0.55 -5.55,1.65c-1.6,1.1 -2.4,2.625 -2.4,4.575c0,1.2 0.262,2.225 0.787,3.075c0.525,0.85 1.263,1.587 2.213,2.212c0.95,0.625 2.075,1.213 3.375,1.763c1.3,0.55 2.725,1.15 4.275,1.8c2.3,0.95 4.262,1.887 5.887,2.812c1.625,0.925 2.963,1.975 4.013,3.15c1.05,1.175 1.825,2.538 2.325,4.088c0.5,1.55 0.75,3.4 0.75,5.55c0,2.3 -0.425,4.362 -1.275,6.187c-0.85,1.825 -2.063,3.375 -3.638,4.65c-1.575,1.275 -3.45,2.263 -5.625,2.963c-2.175,0.7 -4.562,1.05 -7.162,1.05c-4.85,0 -9.275,-1.175 -13.275,-3.525l0.825,-11.925l1.65,0c0.1,1.65 0.487,3.187 1.162,4.612c0.675,1.425 1.563,2.675 2.663,3.75c1.1,1.075 2.35,1.913 3.75,2.513c1.4,0.6 2.9,0.9 4.5,0.9c1.25,0 2.462,-0.163 3.637,-0.488c1.175,-0.325 2.2,-0.8 3.075,-1.425c0.875,-0.625 1.575,-1.4 2.1,-2.325c0.525,-0.925 0.788,-1.987 0.788,-3.187c0,-1.6 -0.275,-2.9 -0.825,-3.9c-0.55,-1 -1.363,-1.863 -2.438,-2.588c-1.075,-0.725 -2.4,-1.412 -3.975,-2.062c-1.575,-0.65 -3.362,-1.4 -5.362,-2.25c-2.25,-0.95 -4.1,-1.95 -5.55,-3c-1.45,-1.05 -2.588,-2.15 -3.413,-3.3c-0.825,-1.15 -1.4,-2.363 -1.725,-3.638c-0.325,-1.275 -0.487,-2.587 -0.487,-3.937c0,-2.35 0.475,-4.35 1.425,-6c0.95,-1.65 2.2,-3 3.75,-4.05c1.55,-1.05 3.287,-1.813 5.212,-2.288c1.925,-0.475 3.838,-0.712 5.738,-0.712c4.3,0 7.925,1.1 10.875,3.3l-0.3,9.3l-1.35,0Z" style="fill:#960;fill-rule:nonzero;"/><path d="M334.62,55.082l0,2.1l-4.5,0.6c-0.9,0.1 -1.538,0.437 -1.913,1.012c-0.375,0.575 -0.562,1.488 -0.562,2.738l0,25.875c0,4.05 1.012,7.125 3.037,9.225c2.025,2.1 4.988,3.15 8.888,3.15c2.4,0 4.437,-0.3 6.112,-0.9c1.675,-0.6 3.05,-1.6 4.125,-3c1.075,-1.4 1.85,-3.275 2.325,-5.625c0.475,-2.35 0.713,-5.275 0.713,-8.775l0,-19.875c0,-2 -1.025,-3.2 -3.075,-3.6l-4.425,-0.825l0,-2.1c1.2,0.15 3.75,0.225 7.65,0.225c0.95,0 1.925,0 2.925,0c1,0 1.925,-0.013 2.775,-0.038c0.85,-0.025 1.6,-0.05 2.25,-0.075c0.65,-0.025 1.125,-0.062 1.425,-0.112l0,2.1l-4.35,0.975c-1.1,0.2 -1.65,1.35 -1.65,3.45l0,21.825c0,6.55 -1.375,11.512 -4.125,14.887c-2.75,3.375 -7.225,5.063 -13.425,5.063c-6.75,0 -11.9,-1.35 -15.45,-4.05c-3.55,-2.7 -5.325,-6.625 -5.325,-11.775l0,-26.25c0,-1.2 -0.125,-2.063 -0.375,-2.588c-0.25,-0.525 -0.725,-0.837 -1.425,-0.937l-4.35,-0.6l0,-2.1c1.65,0.1 3.537,0.162 5.662,0.187c2.125,0.025 4.238,0.038 6.338,0.038c1.05,0 2.112,0 3.187,0c1.075,0 2.1,-0.013 3.075,-0.038c0.975,-0.025 1.85,-0.05 2.625,-0.075c0.775,-0.025 1.388,-0.062 1.838,-0.112Z" style="fill:#960;fill-rule:nonzero;"/><path d="M376.32,96.107c0,1.25 0.15,2.087 0.45,2.512c0.3,0.425 0.925,0.688 1.875,0.788l5.925,0.75l0,2.25c-3,-0.15 -6,-0.225 -9,-0.225c-3,0 -6.475,0.075 -10.425,0.225l0,-2.25l4.125,-0.75c1.7,-0.3 2.787,-0.65 3.262,-1.05c0.475,-0.4 0.713,-1.15 0.713,-2.25l0,-30.225c0,-2.3 -0.25,-4.013 -0.75,-5.138c-0.5,-1.125 -1.45,-1.812 -2.85,-2.062l-4.425,-0.675l0,-2.7l13.5,0c0.6,0 1.1,0.025 1.5,0.075c0.4,0.05 0.775,0.15 1.125,0.3c0.35,0.15 0.687,0.35 1.012,0.6c0.325,0.25 0.688,0.575 1.088,0.975l27.825,29.4l0,-24.525c0,-1.35 -0.213,-2.313 -0.638,-2.888c-0.425,-0.575 -1.112,-0.912 -2.062,-1.012l-5.625,-0.75l0,-2.4c1.4,0.15 4.1,0.225 8.1,0.225c2,0 3.887,-0.013 5.662,-0.038c1.775,-0.025 3.013,-0.087 3.713,-0.187l0,2.4l-4.425,0.3c-0.85,0.1 -1.363,0.512 -1.538,1.237c-0.175,0.725 -0.262,1.763 -0.262,3.113l0,41.025l-1.8,0l-36.075,-38.4l0,31.35Z" style="fill:#960;fill-rule:nonzero;"/><path d="M434.595,96.107c0,1.25 0.15,2.087 0.45,2.512c0.3,0.425 0.925,0.688 1.875,0.788l5.925,0.75l0,2.25c-3,-0.15 -6,-0.225 -9,-0.225c-3,0 -6.475,0.075 -10.425,0.225l0,-2.25l4.125,-0.75c1.7,-0.3 2.787,-0.65 3.262,-1.05c0.475,-0.4 0.713,-1.15 0.713,-2.25l0,-30.225c0,-2.3 -0.25,-4.013 -0.75,-5.138c-0.5,-1.125 -1.45,-1.812 -2.85,-2.062l-4.425,-0.675l0,-2.7l13.5,0c0.6,0 1.1,0.025 1.5,0.075c0.4,0.05 0.775,0.15 1.125,0.3c0.35,0.15 0.687,0.35 1.012,0.6c0.325,0.25 0.688,0.575 1.088,0.975l27.825,29.4l0,-24.525c0,-1.35 -0.213,-2.313 -0.638,-2.888c-0.425,-0.575 -1.112,-0.912 -2.062,-1.012l-5.625,-0.75l0,-2.4c1.4,0.15 4.1,0.225 8.1,0.225c2,0 3.887,-0.013 5.662,-0.038c1.775,-0.025 3.013,-0.087 3.713,-0.187l0,2.4l-4.425,0.3c-0.85,0.1 -1.363,0.512 -1.538,1.237c-0.175,0.725 -0.262,1.763 -0.262,3.113l0,41.025l-1.8,0l-36.075,-38.4l0,31.35Z" style="fill:#960;fill-rule:nonzero;"/><path d="M513.945,99.482l4.125,0.825l0,2.1c-2.9,-0.1 -5.563,-0.163 -7.988,-0.188c-2.425,-0.025 -4.412,-0.037 -5.962,-0.037c-1.5,0 -3.163,0.012 -4.988,0.037c-1.825,0.025 -3.562,0.088 -5.212,0.188l0,-1.95l4.575,-0.9c0.85,-0.15 1.55,-0.45 2.1,-0.9c0.55,-0.45 0.825,-1 0.825,-1.65l0,-11.775c0.05,-0.55 -0.063,-1.138 -0.338,-1.763c-0.275,-0.625 -0.612,-1.287 -1.012,-1.987l-11.55,-19.125c-0.95,-1.6 -1.825,-2.763 -2.625,-3.488c-0.8,-0.725 -1.525,-1.137 -2.175,-1.237l-3.3,-0.45l0,-2.1c0.95,0.15 4.05,0.225 9.3,0.225c1.25,0 2.55,0 3.9,0c1.35,0 2.625,-0.013 3.825,-0.038c1.2,-0.025 2.275,-0.05 3.225,-0.075c0.95,-0.025 1.675,-0.062 2.175,-0.112l0,2.1l-2.475,0.675c-1.35,0.25 -2.025,0.725 -2.025,1.425c0,0.35 0.1,0.625 0.3,0.825l10.875,18.525c1.65,-2.75 3.3,-5.488 4.95,-8.213c1.65,-2.725 3.325,-5.462 5.025,-8.212c0.35,-0.55 0.587,-1.038 0.712,-1.463c0.125,-0.425 0.188,-0.812 0.188,-1.162c0,-0.8 -0.625,-1.35 -1.875,-1.65l-3.525,-0.75l0,-2.1c0.45,0.15 2.9,0.225 7.35,0.225c2.25,0 4.087,-0.025 5.512,-0.075c1.425,-0.05 2.413,-0.125 2.963,-0.225l0,2.1l-2.55,0.6c-0.75,0.2 -1.7,0.737 -2.85,1.612c-1.15,0.875 -2.325,2.363 -3.525,4.463l-9.825,16.05c-0.4,0.55 -0.675,1.2 -0.825,1.95c-0.15,0.75 -0.225,1.925 -0.225,3.525l0,11.55c0,1.45 0.975,2.325 2.925,2.625Z" style="fill:#960;fill-rule:nonzero;"/><path d="M558.12,97.382l0,-37.275c0,-0.85 -0.138,-1.45 -0.413,-1.8c-0.275,-0.35 -0.762,-0.55 -1.462,-0.6l-4.725,-0.675l0,-1.95c0.5,0.15 5.75,0.225 15.75,0.225c2.95,0 5.3,-0.075 7.05,-0.225l0,2.025l-4.725,0.675c-0.7,0.05 -1.188,0.225 -1.463,0.525c-0.275,0.3 -0.412,0.9 -0.412,1.8l0,37.275c0,0.9 0.125,1.475 0.375,1.725c0.25,0.25 0.75,0.4 1.5,0.45l4.725,0.375l0,2.55c-1,-0.1 -2.438,-0.175 -4.313,-0.225c-1.875,-0.05 -4.237,-0.075 -7.087,-0.075c-2.85,0 -5.213,0.025 -7.088,0.075c-1.875,0.05 -3.312,0.125 -4.312,0.225l0,-2.55l4.725,-0.375c0.75,-0.1 1.25,-0.275 1.5,-0.525c0.25,-0.25 0.375,-0.8 0.375,-1.65Z" style="fill:#960;fill-rule:nonzero;"/><path d="M604.695,67.157c-0.7,-3.3 -1.888,-5.675 -3.563,-7.125c-1.675,-1.45 -3.962,-2.175 -6.862,-2.175c-2.1,0 -3.95,0.55 -5.55,1.65c-1.6,1.1 -2.4,2.625 -2.4,4.575c0,1.2 0.262,2.225 0.787,3.075c0.525,0.85 1.263,1.587 2.213,2.212c0.95,0.625 2.075,1.213 3.375,1.763c1.3,0.55 2.725,1.15 4.275,1.8c2.3,0.95 4.262,1.887 5.887,2.812c1.625,0.925 2.963,1.975 4.013,3.15c1.05,1.175 1.825,2.538 2.325,4.088c0.5,1.55 0.75,3.4 0.75,5.55c0,2.3 -0.425,4.362 -1.275,6.187c-0.85,1.825 -2.063,3.375 -3.638,4.65c-1.575,1.275 -3.45,2.263 -5.625,2.963c-2.175,0.7 -4.562,1.05 -7.162,1.05c-4.85,0 -9.275,-1.175 -13.275,-3.525l0.825,-11.925l1.65,0c0.1,1.65 0.487,3.187 1.162,4.612c0.675,1.425 1.563,2.675 2.663,3.75c1.1,1.075 2.35,1.913 3.75,2.513c1.4,0.6 2.9,0.9 4.5,0.9c1.25,0 2.462,-0.163 3.637,-0.488c1.175,-0.325 2.2,-0.8 3.075,-1.425c0.875,-0.625 1.575,-1.4 2.1,-2.325c0.525,-0.925 0.788,-1.987 0.788,-3.187c0,-1.6 -0.275,-2.9 -0.825,-3.9c-0.55,-1 -1.363,-1.863 -2.438,-2.588c-1.075,-0.725 -2.4,-1.412 -3.975,-2.062c-1.575,-0.65 -3.362,-1.4 -5.362,-2.25c-2.25,-0.95 -4.1,-1.95 -5.55,-3c-1.45,-1.05 -2.588,-2.15 -3.413,-3.3c-0.825,-1.15 -1.4,-2.363 -1.725,-3.638c-0.325,-1.275 -0.487,-2.587 -0.487,-3.937c0,-2.35 0.475,-4.35 1.425,-6c0.95,-1.65 2.2,-3 3.75,-4.05c1.55,-1.05 3.287,-1.813 5.212,-2.288c1.925,-0.475 3.838,-0.712 5.738,-0.712c4.3,0 7.925,1.1 10.875,3.3l-0.3,9.3l-1.35,0Z" style="fill:#960;fill-rule:nonzero;"/><path d="M630.42,97.307c0,0.65 0.112,1.137 0.337,1.462c0.225,0.325 0.813,0.488 1.763,0.488l7.275,0c0.95,0 2.037,-0.063 3.262,-0.188c1.225,-0.125 2.525,-0.5 3.9,-1.125c1.375,-0.625 2.775,-1.6 4.2,-2.925c1.425,-1.325 2.788,-3.187 4.088,-5.587l1.2,0l-2.175,13.05c-2.1,-0.1 -4.85,-0.175 -8.25,-0.225c-3.4,-0.05 -7.6,-0.075 -12.6,-0.075c-5,0 -9.113,0.025 -12.338,0.075c-3.225,0.05 -5.637,0.125 -7.237,0.225l0,-1.8l5.1,-0.975c1.3,-0.15 1.95,-0.675 1.95,-1.575l0,-37.725c0,-0.95 -0.175,-1.55 -0.525,-1.8c-0.35,-0.25 -0.825,-0.45 -1.425,-0.6l-4.05,-0.975l0,-1.95c2.7,0.15 6.75,0.225 12.15,0.225c5.4,0 8.75,-0.075 10.05,-0.225l0,1.95l-4.725,0.975c-0.65,0.15 -1.138,0.337 -1.463,0.562c-0.325,0.225 -0.487,0.838 -0.487,1.838l0,36.9Z" style="fill:#960;fill-rule:nonzero;"/><path d="M704.82,87.782c-0.3,1.15 -0.55,2.387 -0.75,3.712c-0.2,1.325 -0.375,2.638 -0.525,3.938c-0.15,1.3 -0.275,2.562 -0.375,3.787c-0.1,1.225 -0.175,2.288 -0.225,3.188c-3.15,-0.1 -6.413,-0.163 -9.788,-0.188c-3.375,-0.025 -7.187,-0.037 -11.437,-0.037c-4.25,0 -8.425,0.012 -12.525,0.037c-4.1,0.025 -7.725,0.088 -10.875,0.188l0,-2.025l5.175,-0.375c0.85,-0.1 1.437,-0.275 1.762,-0.525c0.325,-0.25 0.488,-0.95 0.488,-2.1l0,-36.225c0,-1.2 -0.138,-2.05 -0.413,-2.55c-0.275,-0.5 -0.762,-0.8 -1.462,-0.9l-5.25,-0.525l0,-2.1c2.1,0.1 5.05,0.162 8.85,0.187c3.8,0.025 8.1,0.038 12.9,0.038c4.8,0 8.737,-0.013 11.812,-0.038c3.075,-0.025 5.613,-0.087 7.613,-0.187c-0.1,0.75 -0.175,1.662 -0.225,2.737c-0.05,1.075 -0.075,2.175 -0.075,3.3c0,1.125 0.025,2.225 0.075,3.3c0.05,1.075 0.1,2.013 0.15,2.813l-0.975,0c-0.5,-1.85 -1.013,-3.338 -1.538,-4.463c-0.525,-1.125 -1.1,-2 -1.725,-2.625c-0.625,-0.625 -1.3,-1.05 -2.025,-1.275c-0.725,-0.225 -1.537,-0.337 -2.437,-0.337l-13.5,0c-0.85,0 -1.425,0.237 -1.725,0.712c-0.3,0.475 -0.45,1.288 -0.45,2.438l0,15.3l11.55,0c1.05,0 1.962,-0.15 2.737,-0.45c0.775,-0.3 1.313,-0.9 1.613,-1.8l1.725,-5.025l2.1,0c-0.3,5.95 -0.3,11.95 0,18l-1.5,0l-2.4,-5.1c-0.5,-1.05 -1.3,-1.8 -2.4,-2.25c-1.1,-0.45 -2.3,-0.675 -3.6,-0.675l-9.825,0l0,16.275c0,1.1 0.2,1.862 0.6,2.287c0.4,0.425 1.25,0.638 2.55,0.638l12.75,0c1.1,0 2.162,-0.15 3.187,-0.45c1.025,-0.3 2.025,-0.85 3,-1.65c0.975,-0.8 1.95,-1.925 2.925,-3.375c0.975,-1.45 1.963,-3.325 2.963,-5.625l1.5,0Z" style="fill:#960;fill-rule:nonzero;"/><path d="M315.795,154.082c0,-1.05 -0.125,-1.763 -0.375,-2.138c-0.25,-0.375 -0.675,-0.612 -1.275,-0.712l-3.6,-0.45l0,-1.95c0.95,0.1 2.437,0.175 4.462,0.225c2.025,0.05 4.113,0.075 6.263,0.075c2.15,0 4.237,-0.025 6.262,-0.075c2.025,-0.05 3.488,-0.125 4.388,-0.225l0,1.95l-4.95,0.75c-0.65,0.1 -1.075,0.325 -1.275,0.675c-0.2,0.35 -0.3,1 -0.3,1.95l0,35.925c0,1.1 0.112,1.85 0.337,2.25c0.225,0.4 0.788,0.7 1.688,0.9l5.4,1.05l0,1.95c-1.25,-0.1 -2.925,-0.175 -5.025,-0.225c-2.1,-0.05 -4.2,-0.075 -6.3,-0.075c-1,0 -2.038,0 -3.113,0c-1.075,0 -2.125,0.012 -3.15,0.037c-1.025,0.025 -1.987,0.063 -2.887,0.113c-0.9,0.05 -1.675,0.1 -2.325,0.15l0,-1.95l4.275,-0.75c0.6,-0.1 1,-0.4 1.2,-0.9c0.2,-0.5 0.3,-1.35 0.3,-2.55l0,-16.05l-23.175,0l0,16.05c0,1.25 0.1,2.112 0.3,2.587c0.2,0.475 0.625,0.763 1.275,0.863l4.275,0.75l0,1.95c-0.65,-0.05 -1.425,-0.1 -2.325,-0.15c-0.9,-0.05 -1.863,-0.088 -2.888,-0.113c-1.025,-0.025 -2.087,-0.037 -3.187,-0.037c-1.1,0 -2.15,0 -3.15,0c-2,0 -4.063,0.025 -6.188,0.075c-2.125,0.05 -3.812,0.125 -5.062,0.225l0,-1.95l5.4,-1.05c0.8,-0.15 1.325,-0.45 1.575,-0.9c0.25,-0.45 0.375,-1.2 0.375,-2.25l0,-36c0,-1.05 -0.125,-1.763 -0.375,-2.138c-0.25,-0.375 -0.675,-0.612 -1.275,-0.712l-3.6,-0.45l0,-1.95c0.95,0.1 2.45,0.175 4.5,0.225c2.05,0.05 4.2,0.075 6.45,0.075c2.2,0 4.325,-0.025 6.375,-0.075c2.05,-0.05 3.525,-0.125 4.425,-0.225l0,1.95l-5.325,0.75c-0.65,0.1 -1.075,0.337 -1.275,0.712c-0.2,0.375 -0.3,1.013 -0.3,1.913l0,16.425l23.175,0l0,-16.5Z" style="fill:#960;fill-rule:nonzero;"/><path d="M364.095,196.982c-3.7,0 -7.163,-0.563 -10.388,-1.688c-3.225,-1.125 -6.037,-2.725 -8.437,-4.8c-2.4,-2.075 -4.288,-4.587 -5.663,-7.537c-1.375,-2.95 -2.062,-6.225 -2.062,-9.825c0,-3.7 0.712,-7.075 2.137,-10.125c1.425,-3.05 3.363,-5.65 5.813,-7.8c2.45,-2.15 5.312,-3.813 8.587,-4.988c3.275,-1.175 6.763,-1.762 10.463,-1.762c3.75,0 7.212,0.625 10.387,1.875c3.175,1.25 5.938,2.962 8.288,5.137c2.35,2.175 4.187,4.75 5.512,7.725c1.325,2.975 1.988,6.213 1.988,9.713c0,3.5 -0.638,6.725 -1.913,9.675c-1.275,2.95 -3.075,5.487 -5.4,7.612c-2.325,2.125 -5.125,3.788 -8.4,4.988c-3.275,1.2 -6.912,1.8 -10.912,1.8Zm-15.675,-23.475c0,2.55 0.362,5.062 1.087,7.537c0.725,2.475 1.788,4.688 3.188,6.638c1.4,1.95 3.087,3.525 5.062,4.725c1.975,1.2 4.238,1.8 6.788,1.8c4.95,0 8.762,-1.75 11.437,-5.25c2.675,-3.5 4.013,-8.7 4.013,-15.6c0,-2.95 -0.325,-5.75 -0.975,-8.4c-0.65,-2.65 -1.638,-4.963 -2.963,-6.938c-1.325,-1.975 -2.987,-3.55 -4.987,-4.725c-2,-1.175 -4.325,-1.762 -6.975,-1.762c-2.7,0 -5.038,0.625 -7.013,1.875c-1.975,1.25 -3.6,2.9 -4.875,4.95c-1.275,2.05 -2.225,4.4 -2.85,7.05c-0.625,2.65 -0.937,5.35 -0.937,8.1Z" style="fill:#960;fill-rule:nonzero;"/><path d="M395.895,147.482c0.35,-1.35 0.7,-2.013 1.05,-1.988c0.35,0.025 0.8,0.538 1.35,1.538c0.25,0.5 0.475,0.887 0.675,1.162c0.2,0.275 0.437,0.475 0.712,0.6c0.275,0.125 0.6,0.2 0.975,0.225c0.375,0.025 0.838,0.038 1.388,0.038l29.025,0c0.95,0 1.7,-0.025 2.25,-0.075c0.55,-0.05 0.987,-0.163 1.312,-0.338c0.325,-0.175 0.588,-0.4 0.788,-0.675c0.2,-0.275 0.4,-0.637 0.6,-1.087c0.45,-0.95 0.875,-1.425 1.275,-1.425c0.65,0 0.975,0.5 0.975,1.5l-0.15,13.425c0,0.4 -0.075,0.712 -0.225,0.937c-0.15,0.225 -0.338,0.3 -0.563,0.225c-0.225,-0.075 -0.45,-0.325 -0.675,-0.75c-0.225,-0.425 -0.437,-1.137 -0.637,-2.137c-0.25,-0.95 -0.513,-1.788 -0.788,-2.513c-0.275,-0.725 -0.65,-1.325 -1.125,-1.8c-0.475,-0.475 -1.112,-0.837 -1.912,-1.087c-0.8,-0.25 -1.875,-0.375 -3.225,-0.375l-7.65,0l0,36.3c0,1.3 0.162,2.187 0.487,2.662c0.325,0.475 1.013,0.838 2.063,1.088l5.85,1.275l0,1.95c-1,-0.1 -2.4,-0.163 -4.2,-0.188c-1.8,-0.025 -3.775,-0.037 -5.925,-0.037l-8.7,0c-2.1,0 -3.913,0.012 -5.438,0.037c-1.525,0.025 -2.512,0.088 -2.962,0.188l0,-1.95l5.7,-1.05c1.45,-0.25 2.4,-0.688 2.85,-1.313c0.45,-0.625 0.675,-1.537 0.675,-2.737l0,-36.225l-7.8,0c-0.75,-0.05 -1.438,0 -2.063,0.15c-0.625,0.15 -1.25,0.475 -1.875,0.975c-0.625,0.5 -1.287,1.187 -1.987,2.062c-0.7,0.875 -1.525,2.013 -2.475,3.413c-0.7,0.95 -1.225,1.55 -1.575,1.8c-0.35,0.25 -0.575,0.262 -0.675,0.037c-0.1,-0.225 -0.113,-0.625 -0.038,-1.2c0.075,-0.575 0.188,-1.212 0.338,-1.912l2.325,-10.725Z" style="fill:#960;fill-rule:nonzero;"/><path d="M487.17,181.532c-0.3,1.15 -0.55,2.387 -0.75,3.712c-0.2,1.325 -0.375,2.638 -0.525,3.938c-0.15,1.3 -0.275,2.562 -0.375,3.787c-0.1,1.225 -0.175,2.288 -0.225,3.188c-3.15,-0.1 -6.413,-0.163 -9.788,-0.188c-3.375,-0.025 -7.187,-0.037 -11.437,-0.037c-4.25,0 -8.425,0.012 -12.525,0.037c-4.1,0.025 -7.725,0.088 -10.875,0.188l0,-2.025l5.175,-0.375c0.85,-0.1 1.437,-0.275 1.762,-0.525c0.325,-0.25 0.488,-0.95 0.488,-2.1l0,-36.225c0,-1.2 -0.138,-2.05 -0.413,-2.55c-0.275,-0.5 -0.762,-0.8 -1.462,-0.9l-5.25,-0.525l0,-2.1c2.1,0.1 5.05,0.162 8.85,0.187c3.8,0.025 8.1,0.038 12.9,0.038c4.8,0 8.737,-0.013 11.812,-0.038c3.075,-0.025 5.613,-0.087 7.613,-0.187c-0.1,0.75 -0.175,1.662 -0.225,2.737c-0.05,1.075 -0.075,2.175 -0.075,3.3c0,1.125 0.025,2.225 0.075,3.3c0.05,1.075 0.1,2.013 0.15,2.813l-0.975,0c-0.5,-1.85 -1.013,-3.338 -1.538,-4.463c-0.525,-1.125 -1.1,-2 -1.725,-2.625c-0.625,-0.625 -1.3,-1.05 -2.025,-1.275c-0.725,-0.225 -1.537,-0.337 -2.437,-0.337l-13.5,0c-0.85,0 -1.425,0.237 -1.725,0.712c-0.3,0.475 -0.45,1.288 -0.45,2.438l0,15.3l11.55,0c1.05,0 1.962,-0.15 2.737,-0.45c0.775,-0.3 1.313,-0.9 1.613,-1.8l1.725,-5.025l2.1,0c-0.3,5.95 -0.3,11.95 0,18l-1.5,0l-2.4,-5.1c-0.5,-1.05 -1.3,-1.8 -2.4,-2.25c-1.1,-0.45 -2.3,-0.675 -3.6,-0.675l-9.825,0l0,16.275c0,1.1 0.2,1.862 0.6,2.287c0.4,0.425 1.25,0.638 2.55,0.638l12.75,0c1.1,0 2.162,-0.15 3.187,-0.45c1.025,-0.3 2.025,-0.85 3,-1.65c0.975,-0.8 1.95,-1.925 2.925,-3.375c0.975,-1.45 1.963,-3.325 2.963,-5.625l1.5,0Z" style="fill:#960;fill-rule:nonzero;"/><path d="M506.52,191.057c0,0.65 0.112,1.137 0.337,1.462c0.225,0.325 0.813,0.488 1.763,0.488l7.275,0c0.95,0 2.037,-0.063 3.262,-0.188c1.225,-0.125 2.525,-0.5 3.9,-1.125c1.375,-0.625 2.775,-1.6 4.2,-2.925c1.425,-1.325 2.788,-3.187 4.088,-5.587l1.2,0l-2.175,13.05c-2.1,-0.1 -4.85,-0.175 -8.25,-0.225c-3.4,-0.05 -7.6,-0.075 -12.6,-0.075c-5,0 -9.113,0.025 -12.338,0.075c-3.225,0.05 -5.637,0.125 -7.237,0.225l0,-1.8l5.1,-0.975c1.3,-0.15 1.95,-0.675 1.95,-1.575l0,-37.725c0,-0.95 -0.175,-1.55 -0.525,-1.8c-0.35,-0.25 -0.825,-0.45 -1.425,-0.6l-4.05,-0.975l0,-1.95c2.7,0.15 6.75,0.225 12.15,0.225c5.4,0 8.75,-0.075 10.05,-0.225l0,1.95l-4.725,0.975c-0.65,0.15 -1.138,0.337 -1.463,0.562c-0.325,0.225 -0.487,0.838 -0.487,1.838l0,36.9Z" style="fill:#960;fill-rule:nonzero;"/></g></svg>